<?xml version="1.0" standalone="no"?>
<!DOCTYPE svg PUBLIC "-//W3C//DTD SVG 20010904//EN"
 "http://www.w3.org/TR/2001/REC-SVG-20010904/DTD/svg10.dtd">
<svg version="1.0" xmlns="http://www.w3.org/2000/svg"
 width="576.000000pt" height="576.000000pt" viewBox="0 0 576.000000 576.000000"
 preserveAspectRatio="xMidYMid meet">
<metadata>
Created by potrace 1.14, written by Peter Selinger 2001-2017
</metadata>
<g transform="translate(0.000000,576.000000) scale(0.100000,-0.100000)"
fill="#000000" stroke="none">
<path d="M4287 5124 c-3 -3 -34 -6 -69 -8 -90 -3 -122 -29 -135 -111 -4 -27
-5 -74 -4 -245 0 -80 0 -152 0 -160 0 -8 0 -37 0 -65 0 -27 0 -59 0 -70 0 -11
0 -55 1 -99 0 -43 -1 -80 -3 -82 -3 -4 -294 228 -307 245 -3 3 -39 33 -80 66
-41 32 -80 64 -86 70 -20 18 -58 49 -104 85 -25 19 -52 41 -60 50 -8 8 -53 46
-100 83 -47 38 -102 83 -123 100 -113 95 -195 128 -320 132 -147 5 -238 -33
-388 -158 -47 -40 -104 -87 -127 -105 -23 -19 -51 -43 -64 -54 -40 -33 -62
-52 -113 -92 -28 -22 -54 -44 -60 -50 -5 -6 -44 -38 -85 -71 -41 -33 -86 -69
-100 -81 -33 -29 -260 -216 -385 -317 -55 -45 -102 -84 -105 -87 -3 -3 -41
-34 -85 -69 -44 -36 -84 -69 -90 -76 -5 -6 -44 -37 -85 -70 -41 -32 -83 -66
-92 -74 -9 -9 -23 -21 -30 -26 -7 -6 -90 -73 -183 -150 -94 -77 -193 -158
-220 -180 -28 -22 -54 -45 -60 -51 -5 -6 -46 -40 -90 -75 -44 -35 -91 -73
-105 -85 -46 -39 -155 -129 -205 -169 -28 -22 -56 -45 -63 -52 -7 -7 -38 -32
-70 -57 -68 -53 -95 -94 -91 -139 4 -42 23 -72 94 -151 6 -6 22 -27 37 -48 15
-20 33 -42 40 -50 7 -7 37 -42 66 -78 107 -130 146 -129 317 14 17 14 35 29
40 34 6 4 75 61 155 127 80 66 183 151 230 189 47 38 92 76 101 85 9 9 33 30
55 46 33 26 130 105 199 163 11 9 43 35 70 57 28 22 52 42 55 45 3 3 55 46
115 95 61 49 112 92 115 95 3 3 41 35 85 70 43 36 90 74 104 85 13 11 33 28
43 38 10 9 22 17 27 17 5 0 11 4 13 9 2 5 80 72 174 149 181 147 218 179 240
200 8 7 14 11 14 8 0 -3 15 9 34 27 19 17 63 55 97 82 35 28 73 58 84 68 26
23 38 33 105 87 30 25 57 47 60 50 36 41 107 64 148 48 19 -7 137 -97 188
-143 6 -5 30 -26 54 -45 24 -19 48 -39 54 -45 6 -5 34 -28 61 -50 28 -21 52
-42 55 -45 3 -3 39 -32 80 -65 41 -33 80 -65 85 -71 6 -6 35 -30 65 -54 30
-24 63 -51 72 -60 9 -8 23 -20 30 -25 112 -88 208 -171 208 -178 0 -6 3 -8 6
-4 5 5 26 -10 68 -48 6 -6 63 -53 126 -105 63 -52 124 -102 135 -111 11 -10
65 -54 120 -99 55 -45 102 -86 103 -91 2 -5 8 -9 14 -9 5 0 15 -6 22 -12 18
-18 49 -43 141 -118 44 -35 82 -67 85 -70 5 -5 102 -85 126 -104 7 -5 26 -21
44 -36 18 -15 37 -31 44 -36 22 -17 121 -99 126 -104 21 -23 286 -234 305
-244 14 -7 35 -12 48 -11 12 1 29 3 39 4 15 1 65 45 98 87 25 32 104 129 110
134 3 3 21 25 40 50 19 25 40 50 46 55 38 36 50 87 35 152 -2 7 -63 63 -101
93 -24 19 -58 47 -75 61 -55 47 -79 67 -180 149 -55 44 -109 89 -120 98 -11
10 -42 36 -70 57 -27 22 -52 43 -55 46 -3 3 -59 50 -125 104 -66 54 -126 105
-133 112 -9 8 -13 40 -12 95 1 46 0 101 -1 123 0 22 -1 45 -1 50 1 6 1 51 1
100 0 50 0 98 0 108 2 38 2 55 2 132 1 44 0 89 -1 100 -1 11 -1 25 -1 30 0 82
0 153 0 165 0 38 0 197 0 213 2 39 2 55 2 127 0 41 1 86 1 100 5 76 -36 157
-81 162 -74 7 -134 9 -196 8 -27 -1 -52 -1 -55 0 -15 4 -120 4 -120 0 0 -6
-109 -3 -126 4 -7 3 -14 2 -17 0z"/>
<path d="M2847 3979 c-24 -6 -102 -64 -148 -109 -9 -8 -30 -26 -49 -40 -18
-14 -42 -33 -54 -43 -38 -33 -61 -51 -136 -112 -41 -33 -82 -67 -90 -75 -8 -8
-37 -33 -65 -54 -27 -22 -57 -46 -65 -53 -8 -7 -37 -31 -65 -53 -27 -23 -59
-49 -70 -58 -17 -15 -83 -69 -148 -122 -10 -8 -28 -23 -40 -34 -12 -10 -38
-30 -57 -45 -19 -14 -39 -31 -45 -37 -5 -6 -48 -42 -95 -80 -123 -100 -130
-106 -169 -139 -20 -17 -58 -48 -86 -70 -27 -22 -52 -42 -55 -45 -3 -3 -54
-46 -115 -95 -113 -93 -149 -123 -169 -140 -6 -5 -34 -28 -61 -50 -101 -80
-105 -85 -105 -140 0 -54 0 -80 -3 -168 -1 -31 0 -57 3 -57 3 0 5 -27 5 -60 0
-33 -2 -60 -5 -60 -3 0 -3 -56 0 -125 3 -69 3 -125 0 -125 -3 0 -5 -25 -5 -55
0 -30 2 -55 5 -55 3 0 4 -30 2 -67 -2 -38 -2 -81 -2 -98 1 -16 2 -37 1 -45 -1
-20 -1 -82 2 -213 1 -59 0 -107 -3 -107 -3 0 -5 -25 -5 -55 0 -30 2 -55 5 -55
4 0 4 -71 0 -150 -3 -51 8 -147 19 -168 23 -43 78 -75 139 -79 31 -2 65 -5 74
-7 10 -2 18 -1 18 2 0 4 21 6 47 4 27 -1 55 -3 63 -2 100 2 131 1 140 -5 5 -3
10 -3 10 2 0 6 102 9 120 2 3 -1 10 0 15 1 13 3 127 3 140 0 6 -1 12 -1 15 0
17 7 280 3 280 -4 0 -5 6 -4 13 1 6 5 59 8 117 7 58 0 110 2 115 5 6 3 12 6
15 6 3 0 18 9 33 19 32 22 67 84 67 118 -2 93 -2 262 0 268 1 5 0 133 -1 155
-1 6 0 35 0 65 1 30 1 98 1 150 -1 52 -1 100 0 105 3 25 0 208 -4 212 -9 9 17
79 41 111 39 51 78 62 227 62 72 0 138 1 146 1 68 3 382 -1 415 -6 11 -1 26
-3 34 -4 7 0 30 -19 51 -40 30 -31 40 -50 45 -88 7 -53 8 -73 5 -88 -1 -5 -1
-66 0 -135 1 -69 1 -132 1 -140 0 -8 0 -98 0 -200 0 -230 0 -195 -1 -329 -1
-99 2 -119 22 -160 41 -82 59 -87 323 -86 124 0 225 -4 225 -8 0 -5 5 -5 12
-1 7 5 55 7 108 6 119 -3 99 -3 208 0 50 2 92 0 92 -4 0 -3 12 -3 28 1 15 4
42 4 60 0 17 -4 32 -4 32 0 0 3 23 6 50 6 28 0 50 -2 50 -6 0 -3 29 -2 65 2
72 7 128 40 147 87 15 37 26 112 18 117 -4 2 -4 25 0 50 4 25 4 48 0 50 -4 2
-4 25 0 50 4 25 4 45 1 45 -3 0 -6 27 -6 60 0 33 2 60 5 60 3 0 4 46 3 102 -2
111 -3 180 -4 242 0 21 0 42 -1 45 0 3 0 8 1 11 5 13 5 120 1 120 -3 0 -5 27
-5 60 0 33 2 60 5 60 3 0 4 46 3 102 -2 111 -3 180 -4 242 0 21 0 42 -1 45 0
3 0 8 1 11 5 13 5 120 1 120 -3 0 -4 20 -2 45 4 47 -13 105 -30 105 -5 0 -15
6 -22 13 -7 6 -32 28 -56 47 -24 19 -48 40 -54 45 -9 9 -66 55 -190 155 -10 8
-23 20 -30 25 -14 13 -176 146 -194 160 -7 5 -23 19 -35 30 -12 11 -49 42 -82
68 -33 26 -69 56 -80 65 -11 9 -72 59 -135 111 -63 51 -132 108 -152 127 -20
19 -40 34 -43 34 -4 0 -39 28 -79 65 -6 6 -47 39 -91 75 -44 35 -82 67 -85 70
-3 3 -41 35 -85 70 -44 35 -82 67 -85 70 -3 3 -39 32 -80 65 -41 33 -77 63
-80 66 -3 3 -43 36 -89 74 -86 70 -126 87 -174 74z"/>
</g>
</svg>
